<?xml version="1.0" encoding="UTF-8"?>
<svg xmlns="http://www.w3.org/2000/svg" xmlns:xlink="http://www.w3.org/1999/xlink" viewBox="0 0 89.07 89.07">
  <defs>
    <style>
      .cls-1 {
        fill: url(#linear-gradient-3);
      }

      .cls-1, .cls-2, .cls-3, .cls-4, .cls-5 {
        mix-blend-mode: multiply;
      }

      .cls-6 {
        fill: #f3f0ea;
      }

      .cls-7 {
        fill: url(#radial-gradient-7);
      }

      .cls-2 {
        fill: #da8291;
        opacity: .53;
      }

      .cls-8 {
        fill: #fff;
      }

      .cls-9 {
        fill: #cd363e;
      }

      .cls-10 {
        filter: url(#luminosity-noclip-5);
      }

      .cls-3 {
        fill: url(#radial-gradient-2);
      }

      .cls-11 {
        mask: url(#mask-2);
      }

      .cls-12 {
        fill: url(#radial-gradient-5);
      }

      .cls-13 {
        isolation: isolate;
      }

      .cls-14 {
        mask: url(#mask-3);
      }

      .cls-4 {
        fill: url(#radial-gradient);
      }

      .cls-15 {
        fill: url(#radial-gradient-6);
        mix-blend-mode: overlay;
        opacity: .6;
      }

      .cls-16 {
        mask: url(#mask-5);
      }

      .cls-17 {
        fill: #f1c3b0;
      }

      .cls-18 {
        mask: url(#mask-4);
      }

      .cls-5 {
        fill: url(#linear-gradient-2);
      }

      .cls-19 {
        fill: url(#radial-gradient-3);
      }

      .cls-20 {
        mask: url(#mask-6);
      }

      .cls-21 {
        fill: #e2e0da;
      }

      .cls-22 {
        mask: url(#mask-1);
      }

      .cls-23 {
        mask: url(#mask);
      }

      .cls-24 {
        fill: url(#radial-gradient-4);
        opacity: .25;
      }

      .cls-25 {
        fill: url(#linear-gradient);
      }

      .cls-26 {
        mask: url(#mask-7);
      }

      .cls-27 {
        fill: #131112;
      }

      .cls-28 {
        filter: url(#luminosity-noclip-2);
      }

      .cls-29 {
        fill: url(#linear-gradient-4);
      }

      .cls-30 {
        fill: #da8492;
      }
    </style>
    <linearGradient id="linear-gradient" x1="15.92" y1="10.43" x2="73.16" y2="78.64" gradientUnits="userSpaceOnUse">
      <stop offset="0" stop-color="#faf5a9"/>
      <stop offset=".6" stop-color="#cb812b"/>
      <stop offset="1" stop-color="#8f6c29"/>
    </linearGradient>
    <filter id="luminosity-noclip" x="0" y="-8330.78" width="89.07" height="32766" color-interpolation-filters="sRGB" filterUnits="userSpaceOnUse">
      <feFlood flood-color="#fff" result="bg"/>
      <feBlend in="SourceGraphic" in2="bg"/>
    </filter>
    <mask id="mask-1" x="0" y="-8330.78" width="89.07" height="32766" maskUnits="userSpaceOnUse"/>
    <radialGradient id="radial-gradient" cx="44.54" cy="44.54" fx="44.54" fy="44.54" r="44.54" gradientTransform="translate(64.97 -15.04) rotate(63.93)" gradientUnits="userSpaceOnUse">
      <stop offset=".83" stop-color="#000"/>
      <stop offset=".85" stop-color="#080808"/>
      <stop offset=".89" stop-color="#212121"/>
      <stop offset=".93" stop-color="#494949"/>
      <stop offset=".98" stop-color="#7f7f7f"/>
      <stop offset="1" stop-color="#999"/>
    </radialGradient>
    <mask id="mask" x="0" y="0" width="89.07" height="89.07" maskUnits="userSpaceOnUse">
      <g class="cls-22">
        <circle id="inner_shadow" data-name="inner shadow" class="cls-4" cx="44.54" cy="44.54" r="44.52" transform="translate(-15.04 64.97) rotate(-63.93)"/>
      </g>
    </mask>
    <filter id="luminosity-noclip-2" x="0" y="0" width="89.07" height="89.07" color-interpolation-filters="sRGB" filterUnits="userSpaceOnUse">
      <feFlood flood-color="#fff" result="bg"/>
      <feBlend in="SourceGraphic" in2="bg"/>
    </filter>
    <filter id="luminosity-noclip-3" x="0" y="-8330.78" width="89.07" height="32766" color-interpolation-filters="sRGB" filterUnits="userSpaceOnUse">
      <feFlood flood-color="#fff" result="bg"/>
      <feBlend in="SourceGraphic" in2="bg"/>
    </filter>
    <mask id="mask-3" x="0" y="-8330.78" width="89.07" height="32766" maskUnits="userSpaceOnUse"/>
    <radialGradient id="radial-gradient-2" cx="44.54" cy="44.54" fx="44.54" fy="44.54" r="44.54" gradientTransform="translate(64.97 -15.04) rotate(63.93)" gradientUnits="userSpaceOnUse">
      <stop offset=".5" stop-color="#000"/>
      <stop offset="1" stop-color="#fff"/>
    </radialGradient>
    <mask id="mask-2" x="0" y="0" width="89.07" height="89.07" maskUnits="userSpaceOnUse">
      <g class="cls-28">
        <g class="cls-14">
          <circle id="inner_shadow-2" data-name="inner shadow" class="cls-3" cx="44.54" cy="44.54" r="44.52" transform="translate(-15.04 64.97) rotate(-63.93)"/>
        </g>
      </g>
    </mask>
    <radialGradient id="radial-gradient-3" cx="44.54" cy="44.54" fx="44.54" fy="44.54" r="44.54" gradientTransform="translate(64.97 -15.04) rotate(63.93)" gradientUnits="userSpaceOnUse">
      <stop offset=".5" stop-color="#151011"/>
      <stop offset="1" stop-color="#010101"/>
    </radialGradient>
    <radialGradient id="radial-gradient-4" cx="63.17" cy="-1.2" fx="63.17" fy="-1.2" r="132.17" gradientUnits="userSpaceOnUse">
      <stop offset="0" stop-color="#000"/>
      <stop offset=".31" stop-color="#fff"/>
      <stop offset=".55" stop-color="#000"/>
      <stop offset=".63" stop-color="#989898"/>
      <stop offset=".69" stop-color="#fff"/>
      <stop offset=".87" stop-color="#2e2e2e"/>
    </radialGradient>
    <radialGradient id="radial-gradient-5" cx="76.19" cy="-10.4" fx="76.19" fy="-10.4" r="139.84" xlink:href="#radial-gradient-4"/>
    <radialGradient id="radial-gradient-6" cx="63.17" cy="-.45" fx="63.17" fy="-.45" r="93.6" gradientUnits="userSpaceOnUse">
      <stop offset="0" stop-color="#000"/>
      <stop offset="0" stop-color="#090909"/>
      <stop offset=".05" stop-color="#373737"/>
      <stop offset=".09" stop-color="#626262"/>
      <stop offset=".14" stop-color="#878787"/>
      <stop offset=".2" stop-color="#a8a8a8"/>
      <stop offset=".25" stop-color="#c3c3c3"/>
      <stop offset=".32" stop-color="#d9d9d9"/>
      <stop offset=".4" stop-color="#eaeaea"/>
      <stop offset=".49" stop-color="#f6f6f6"/>
      <stop offset=".63" stop-color="#fdfdfd"/>
      <stop offset="1" stop-color="#fff"/>
    </radialGradient>
    <radialGradient id="radial-gradient-7" cx="74.25" cy="-7.03" fx="74.25" fy="-7.03" r="131.27" xlink:href="#radial-gradient-4"/>
    <filter id="luminosity-noclip-4" x="10.59" y="-8330.78" width="62.82" height="32766" color-interpolation-filters="sRGB" filterUnits="userSpaceOnUse">
      <feFlood flood-color="#fff" result="bg"/>
      <feBlend in="SourceGraphic" in2="bg"/>
    </filter>
    <mask id="mask-5" x="10.59" y="-8330.78" width="62.82" height="32766" maskUnits="userSpaceOnUse"/>
    <linearGradient id="linear-gradient-2" x1="-6.69" y1="18.2" x2="53.54" y2="18.2" gradientTransform="translate(23.26 -6.03) rotate(11.26)" gradientUnits="userSpaceOnUse">
      <stop offset="0" stop-color="#fff"/>
      <stop offset=".12" stop-color="#c5c5c5"/>
      <stop offset=".28" stop-color="gray"/>
      <stop offset=".42" stop-color="#494949"/>
      <stop offset=".54" stop-color="#212121"/>
      <stop offset=".64" stop-color="#080808"/>
      <stop offset=".7" stop-color="#000"/>
    </linearGradient>
    <mask id="mask-4" x="10.59" y="4.21" width="62.82" height="19.17" maskUnits="userSpaceOnUse">
      <g class="cls-16">
        <path class="cls-5" d="m73.41,16.28c-5.45-5.59-12.59-9.66-20.83-11.3C35.65,1.62,19.1,9.46,10.59,23.37c16.6-8.71,38.99-11.84,62.34-7.2.16.03.32.07.48.1Z"/>
      </g>
    </mask>
    <filter id="luminosity-noclip-5" x="10.59" y="4.21" width="62.82" height="19.17" color-interpolation-filters="sRGB" filterUnits="userSpaceOnUse">
      <feFlood flood-color="#fff" result="bg"/>
      <feBlend in="SourceGraphic" in2="bg"/>
    </filter>
    <filter id="luminosity-noclip-6" x="10.59" y="-8330.78" width="62.82" height="32766" color-interpolation-filters="sRGB" filterUnits="userSpaceOnUse">
      <feFlood flood-color="#fff" result="bg"/>
      <feBlend in="SourceGraphic" in2="bg"/>
    </filter>
    <mask id="mask-7" x="10.59" y="-8330.78" width="62.82" height="32766" maskUnits="userSpaceOnUse"/>
    <linearGradient id="linear-gradient-3" x1="-6.69" y1="18.2" x2="53.54" y2="18.2" gradientTransform="translate(23.26 -6.03) rotate(11.26)" gradientUnits="userSpaceOnUse">
      <stop offset="0" stop-color="#fff"/>
      <stop offset=".12" stop-color="#fafafa"/>
      <stop offset=".25" stop-color="#eee"/>
      <stop offset=".37" stop-color="#d9d9d9"/>
      <stop offset=".5" stop-color="#bcbcbc"/>
      <stop offset=".63" stop-color="#969696"/>
      <stop offset=".76" stop-color="#696969"/>
      <stop offset=".89" stop-color="#333"/>
      <stop offset="1" stop-color="#000"/>
    </linearGradient>
    <mask id="mask-6" x="10.59" y="4.21" width="62.82" height="19.17" maskUnits="userSpaceOnUse">
      <g class="cls-10">
        <g class="cls-26">
          <path class="cls-1" d="m73.41,16.28c-5.45-5.59-12.59-9.66-20.83-11.3C35.65,1.62,19.1,9.46,10.59,23.37c16.6-8.71,38.99-11.84,62.34-7.2.16.03.32.07.48.1Z"/>
        </g>
      </g>
    </mask>
    <linearGradient id="linear-gradient-4" x1="-6.69" y1="18.2" x2="53.54" y2="18.2" gradientTransform="translate(23.26 -6.03) rotate(11.26)" gradientUnits="userSpaceOnUse">
      <stop offset="0" stop-color="#fff"/>
      <stop offset="1" stop-color="#fff"/>
    </linearGradient>
  </defs>
  <g class="cls-13">
    <g id="Layer_2" data-name="Layer 2">
      <g id="Layer_1-2" data-name="Layer 1">
        <g id="ROATA_NOROCOASA" data-name="ROATA NOROCOASA">
          <g id="Fortune_Wheel" data-name="Fortune Wheel">
            <g id="Wheel">
              <g>
                <g>
                  <circle class="cls-25" cx="44.54" cy="44.54" r="44.52"/>
                  <g>
                    <path class="cls-6" d="m60.74,42.1s5.16,8.61,3.98,15.83c-1.38,8.4-5.38,5.65-5.38,5.65,0,0-1.49,10.02-9.14,12.28-5.52,1.63-7.29-2.9-7.29-2.9,0,0-3.98,5.32-11.95,2.54-6.92-2.42-5.64-8.52-5.64-8.52,0,0-2.05,2.58-4.7-.5-4.54-5.28-.1-13.06-.1-13.06,0,0-3.52.14-1.07-7.13,2-5.94,9.34-12.59,9.34-12.59,0,0,22.59-.63,31.95,8.39Z"/>
                    <path class="cls-17" d="m57.23,40.88s.12,11.23-5.12,11.66c-3.38.28-5.06-3.39-10.38-4.54-5.6-1.21-5.52,1.19-9.22-.72-1.7-.88-3.23-3.62.2-12.06,0,0,11.54-2.74,24.52,5.66Z"/>
                    <path class="cls-30" d="m38.46,46.3c-.32,1.34.85,2.77,2.62,3.19,1.77.42,3.46-.32,3.78-1.67.32-1.34-.85-2.77-2.62-3.19-1.77-.42-3.46.32-3.78,1.67Z"/>
                    <path class="cls-8" d="m48.72,42.91c-.32-.52-.04-1.74,1.43-1.36,1.26.32,2.3,1.42,2.49,2.51.12.68-.49,1.12-.8,1.09-.56-.06-.73-.37-1.42-.92-.76-.6-1.43-.87-1.71-1.31Z"/>
                    <path class="cls-8" d="m39.37,40.07c.54-.27.94-1.46-.5-1.91-1.24-.38-2.71,0-3.44.83-.46.52-.16,1.21.11,1.34.51.24.82.06,1.69-.04.96-.11,1.67.01,2.14-.22Z"/>
                    <g>
                      <path class="cls-9" d="m29.31,27.4s6.4-15.55,24.99-13.41c13.87,1.6,23.9,15.57,24.09,24.41.04,2.06-2.03,1.39-2.03,1.39,0,0-3.09-6.09-6.91-6.09-3.36,0-5.56,5-5.56,5,0,0-6.54-.41-21.33-4.3-14.79-3.89-13.24-7-13.24-7Z"/>
                      <path class="cls-8" d="m64.28,36.78c1.66,1.43.47,8.74-1.43,9.68-1.01.5-3.75-4.71-18.93-8.43-12.07-2.96-17.05-1.78-17.45-2.71-.4-.93.48-7.44,2.84-7.92,8.07-1.65,26.68,2.2,34.97,9.38Z"/>
                      <path class="cls-8" d="m73.66,40.49c.54-2.25,2.8-3.64,5.05-3.1,2.25.54,3.64,2.8,3.1,5.05-.54,2.25-2.8,3.64-5.05,3.1-2.25-.54-3.64-2.8-3.1-5.05Z"/>
                    </g>
                    <path class="cls-2" d="m48.36,51.16c0,.11-.02,0,0,.11,1.17.68,2.26,1.38,3.75,1.26,1.01-.08,1.82-.57,2.47-1.29,0-.05,0-.1,0-.15-.01-1.37-1.42-2.47-3.14-2.45-1.72.02-3.1,1.15-3.09,2.52Z"/>
                    <path class="cls-2" d="m30.72,44.37s.27,2.26,1.79,2.91c1.37.78,2.66.96,3.59.69.37-1.44-.18-2.83-1.75-3.69-1.91-1.05-3.64.08-3.64.08Z"/>
                    <path class="cls-21" d="m46.58,71.77c3.2,1.35,4.58-3.5,5.09-5.82.09-.41.6-.46.78-.09.26.52.6,1.52,1.44,1.29.66-.18,1.16-1.78,1.28-2.3.22-.95.21-1.93.35-2.88,0-.05.08-.06.1-.01.7,1.76.44,4.4-1.08,5.69-1.03.87-1.78.29-2.33-.56-.83,2.76-2.97,7.73-5.86,5.07-.19-.17-.01-.5.24-.39Z"/>
                    <path class="cls-21" d="m23.64,60.93c.06.25.14.5.21.76.24.9.19,1,1.15,1.42.93.4,1.19.27,1.84-.49.35-.4.55-.91.6-1.43.04-.5.81-.38.78.11-.14,2.14.21,4.22.93,6.23.54,1.51,1.02,3.04,2.61,3.7.09.04.07.17-.03.19-1.7.25-2.42-1.33-2.96-2.66-.74-1.82-1.24-3.66-1.35-5.57-.58.75-1.41,1.29-2.32,1.21-1.66-.14-2.09-2.11-1.9-3.46.04-.26.39-.23.44,0Z"/>
                    <path class="cls-21" d="m23.73,55.15c.09-.14.34-.1.39.06.14.45.03.85-.08,1.3-.08.33-.15.77-.43.99-.02.01-.04,0-.05,0-.21-.29-.15-.73-.13-1.07.02-.46.04-.88.3-1.27Z"/>
                    <path class="cls-21" d="m23.09,52.84c.04-.17.14-.27.31-.31.07-.02.13,0,.19.03.1.05.21.16.21.29,0,.57-.15,1.58-.71,1.89-.04.02-.09,0-.1-.04-.05-.28,0-.57.01-.85.03-.33,0-.69.08-1.01Z"/>
                    <path class="cls-21" d="m26.18,39.54c.17-.16.47.08.36.29-.34.62-.67,1.23-.98,1.86-.27.55-.49,1.08-.96,1.49-.18.15-.44-.04-.41-.25.17-1.19,1.13-2.59,2-3.39Z"/>
                    <path class="cls-21" d="m23.52,44.99s.06,0,.08.02c.33.45-.05,1.02-.33,1.38-.12.15-.34.03-.33-.14.03-.45.12-1.04.57-1.26Z"/>
                    <path class="cls-21" d="m60.84,48.37s.05,0,.07-.01c.1-.01.21.03.26.11.77,1.12.79,2.82.66,4.12-.03.3-.45.32-.56.07-.37-.88-.31-1.81-.4-2.74-.02-.24-.43-1.48-.02-1.55Z"/>
                    <path class="cls-21" d="m62.03,55.16s.08-.04.11,0c.3.45.25,1.15.29,1.68.05.66.01,1.24-.26,1.84-.1.23-.47.18-.5-.07-.06-.64-.06-1.25-.02-1.9.03-.51,0-1.17.37-1.55Z"/>
                    <path class="cls-21" d="m59.14,54.05c.03-.07.11-.04.13.02.23.96.22,1.87,0,2.83-.06.25-.46.28-.48,0-.07-.99-.06-1.92.36-2.84Z"/>
                    <path class="cls-21" d="m46.98,59.56c.14-.4.23-.85.43-1.22.13-.24.51-.21.54.08.1.88-.35,2-.96,2.61-.13.13-.38.06-.35-.15.08-.45.19-.89.33-1.32Z"/>
                    <path class="cls-21" d="m45.78,58.93c.06-.04.12-.01.15.04.4.74-.29,1.82-.59,2.48-.1.22-.46.13-.42-.12.12-.72.17-1.95.86-2.4Z"/>
                    <path class="cls-27" d="m39.96,50.99s.02.02.06.05c.04.04.11.09.19.16.17.13.44.3.78.45.17.07.36.14.57.19.21.05.43.1.67.13.23.03.49.05.73.06.15,0,.26,0,.37,0,.12-.01.25-.02.37-.04.49-.06.94-.23,1.33-.46.39-.23.71-.53.96-.82.25-.29.42-.56.54-.76.11-.2.17-.31.16-.31.04-.14.18-.22.32-.19s.22.18.19.32c0,0-.02.16-.1.41-.08.25-.21.6-.46.99-.24.39-.6.81-1.09,1.15-.24.17-.52.32-.8.43-.29.11-.6.19-.91.24-.16.03-.31.04-.47.05-.16,0-.33,0-.46,0-.3-.01-.59-.04-.87-.11-.28-.05-.55-.13-.79-.23-.25-.1-.47-.21-.67-.33-.4-.25-.68-.53-.84-.74-.08-.11-.14-.2-.18-.27-.04-.07-.06-.12-.06-.11-.08-.12-.04-.29.08-.36.12-.08.29-.04.37.08Z"/>
                    <path class="cls-27" d="m36,42s0,.08,0,.21c0,.14.02.33.05.55.03.22.09.47.21.68.11.21.28.35.49.4.1.02.12.03.18.03.06,0,.11,0,.16,0,.1-.02.2-.05.29-.11.19-.12.35-.32.47-.5.12-.18.21-.36.27-.48.06-.12.09-.19.09-.19h0c.04-.1.15-.14.24-.09.07.03.1.1.1.17,0,0,0,.09-.03.24-.03.15-.08.36-.19.61-.11.24-.27.53-.58.77-.15.12-.35.22-.56.25-.11.02-.22.03-.32.02-.1,0-.24-.03-.3-.05-.21-.06-.4-.16-.56-.31-.16-.15-.27-.32-.34-.49-.14-.34-.17-.67-.16-.93,0-.26.04-.48.08-.62.03-.15.06-.23.06-.23.03-.09.13-.14.23-.11.07.03.12.09.12.16h0Z"/>
                    <path class="cls-27" d="m49.88,45.52c-.01-.1-.05-.21-.08-.32-.03-.11-.09-.22-.15-.34-.07-.11-.15-.22-.24-.31-.1-.09-.2-.18-.32-.24-.11-.07-.24-.1-.35-.14-.12-.03-.23-.05-.34-.05-.11-.01-.21,0-.3,0-.18.02-.32.06-.42.1-.1.04-.16.07-.15.06-.09.02-.15.12-.13.22.02.09.12.15.22.13,0,0,.05,0,.13,0,.08,0,.21.02.35.04.07.01.14.03.22.05.08.01.15.05.22.07.07.04.14.06.2.11.03.01.05.03.08.05-.61-.07-1.21.43-1.36,1.16-.16.77.24,1.5.88,1.63.64.13,1.29-.39,1.45-1.15.01-.05.01-.11.02-.16,0-.02.02-.03.02-.05,0,0,.01-.05.03-.15.01-.1.05-.24.04-.41,0-.09,0-.18-.02-.29Z"/>
                    <path class="cls-27" d="m21.36,35.57c-.82-.28-1.76-.56-2.6-.91-1.07-.45-2.11-1.15-3.23-1.44-.36-.09-.71.4-.39.67.84.7,1.98,1.11,2.99,1.51.92.37,2.01.84,3.02.66.11-.02.2-.13.23-.23.01-.02.02-.04.04-.05.06-.07.04-.17-.05-.2Z"/>
                    <path class="cls-27" d="m22.4,33.3c-.92-1.29-2.08-2.42-3.16-3.57-1.18-1.25-2.31-2.69-3.67-3.75-.36-.28-1.04.09-.71.55,1,1.35,2.32,2.5,3.5,3.68,1.18,1.18,2.35,2.45,3.71,3.42.19.14.46-.14.33-.33Z"/>
                    <path class="cls-27" d="m24.31,31.28c-.19-1.02-.69-1.99-1.13-2.93-.47-1.03-.86-2.2-1.51-3.13-.26-.38-.83-.15-.74.31.21,1.08.85,2.12,1.35,3.09.5.98.98,2,1.67,2.86.15.18.39-.02.36-.21Z"/>
                  </g>
                </g>
                <g>
                  <g>
                    <g>
                      <g class="cls-23">
                        <g class="cls-11">
                          <circle id="inner_shadow-3" data-name="inner shadow" class="cls-19" cx="44.54" cy="44.54" r="44.52" transform="translate(-15.04 64.97) rotate(-63.93)"/>
                        </g>
                      </g>
                      <path class="cls-24" d="m87.92,44.54c0,23.96-19.42,43.38-43.38,43.38S1.15,68.5,1.15,44.54,20.58,1.15,44.54,1.15s43.38,19.42,43.38,43.38Z"/>
                      <path class="cls-12" d="m44.54,89.06c-11.89,0-23.07-4.63-31.48-13.04C4.64,67.61.01,56.43.01,44.54S4.64,21.46,13.05,13.05C21.46,4.64,32.64.01,44.54.01s23.07,4.63,31.48,13.04c8.41,8.41,13.04,19.59,13.04,31.48s-4.63,23.07-13.04,31.48c-8.41,8.41-19.59,13.04-31.48,13.04Zm0-87.86C20.64,1.2,1.2,20.64,1.2,44.54s19.44,43.34,43.34,43.34,43.34-19.44,43.34-43.34S68.43,1.2,44.54,1.2Z"/>
                    </g>
                    <path class="cls-15" d="m44.54,1.15C20.95,1.15,1.76,19.97,1.17,43.42c13.3,10.44,30.75,16.78,49.85,16.78,13.15,0,25.51-3,36.27-8.27.41-2.4.63-4.87.63-7.38C87.92,20.58,68.5,1.15,44.54,1.15Z"/>
                  </g>
                  <path class="cls-7" d="m44.54,86.33c-11.16,0-21.66-4.35-29.56-12.24-7.89-7.89-12.24-18.39-12.24-29.56S7.09,22.87,14.98,14.98c7.89-7.89,18.39-12.24,29.56-12.24s21.66,4.35,29.56,12.24c7.89,7.89,12.24,18.39,12.24,29.56s-4.35,21.66-12.24,29.56c-7.89,7.9-18.39,12.24-29.56,12.24Zm0-83.26C21.67,3.07,3.07,21.67,3.07,44.54s18.6,41.46,41.46,41.46,41.46-18.6,41.46-41.46S67.4,3.07,44.54,3.07Z"/>
                  <g class="cls-18">
                    <g class="cls-20">
                      <path class="cls-29" d="m73.41,16.28c-5.45-5.59-12.59-9.66-20.83-11.3C35.65,1.62,19.1,9.46,10.59,23.37c16.6-8.71,38.99-11.84,62.34-7.2.16.03.32.07.48.1Z"/>
                    </g>
                  </g>
                </g>
              </g>
            </g>
          </g>
        </g>
      </g>
    </g>
  </g>
</svg>