<?xml version="1.0" encoding="UTF-8"?>
<svg id="Layer_2" data-name="Layer 2" xmlns="http://www.w3.org/2000/svg" xmlns:xlink="http://www.w3.org/1999/xlink" viewBox="0 0 122.44 108.71">
  <defs>
    <style>
      .cls-1 {
        fill: url(#radial-gradient-11);
      }

      .cls-1, .cls-2, .cls-3, .cls-4, .cls-5, .cls-6, .cls-7, .cls-8, .cls-9, .cls-10 {
        mix-blend-mode: multiply;
      }

      .cls-11 {
        filter: url(#luminosity-noclip-11);
      }

      .cls-12 {
        fill: url(#linear-gradient-2);
      }

      .cls-13 {
        mask: url(#mask-10);
      }

      .cls-14 {
        mask: url(#mask-17);
      }

      .cls-15 {
        filter: url(#luminosity-noclip-5);
      }

      .cls-2 {
        fill: url(#radial-gradient-8);
      }

      .cls-3 {
        fill: url(#radial-gradient-2);
      }

      .cls-16 {
        mask: url(#mask-2);
      }

      .cls-17 {
        fill: url(#linear-gradient-6);
      }

      .cls-18 {
        mask: url(#mask-13);
      }

      .cls-4 {
        fill: url(#radial-gradient-4);
      }

      .cls-19 {
        mask: url(#mask-3);
      }

      .cls-5 {
        fill: url(#radial-gradient-5);
      }

      .cls-6 {
        fill: url(#radial-gradient);
      }

      .cls-20 {
        fill: url(#radial-gradient-6);
      }

      .cls-21 {
        mask: url(#mask-9);
      }

      .cls-22 {
        fill: url(#radial-gradient-12);
      }

      .cls-23 {
        mask: url(#mask-12);
      }

      .cls-24 {
        filter: url(#luminosity-noclip-14);
      }

      .cls-25 {
        mask: url(#mask-5);
      }

      .cls-26 {
        filter: url(#luminosity-noclip-8);
      }

      .cls-27 {
        mask: url(#mask-8);
      }

      .cls-28 {
        mask: url(#mask-4);
      }

      .cls-29 {
        fill: url(#linear-gradient-5);
      }

      .cls-30 {
        fill: url(#radial-gradient-15);
      }

      .cls-31 {
        mask: url(#mask-19);
      }

      .cls-32 {
        mask: url(#mask-15);
      }

      .cls-33 {
        fill: url(#radial-gradient-3);
      }

      .cls-34 {
        mask: url(#mask-6);
      }

      .cls-35 {
        fill: url(#linear-gradient-7);
      }

      .cls-36 {
        mask: url(#mask-16);
      }

      .cls-37 {
        mask: url(#mask-18);
      }

      .cls-7 {
        fill: url(#radial-gradient-14);
      }

      .cls-38 {
        fill: url(#linear-gradient-9);
      }

      .cls-39 {
        mask: url(#mask-1);
      }

      .cls-40 {
        mask: url(#mask);
      }

      .cls-41 {
        fill: url(#linear-gradient-3);
      }

      .cls-8 {
        fill: url(#radial-gradient-13);
      }

      .cls-42 {
        fill: url(#linear-gradient);
      }

      .cls-43 {
        mask: url(#mask-7);
      }

      .cls-9 {
        fill: url(#radial-gradient-10);
      }

      .cls-44 {
        filter: url(#luminosity-noclip-2);
      }

      .cls-45 {
        mask: url(#mask-14);
      }

      .cls-10 {
        fill: url(#radial-gradient-7);
      }

      .cls-46 {
        fill: url(#linear-gradient-4);
      }

      .cls-47 {
        mask: url(#mask-11);
      }

      .cls-48 {
        fill: url(#radial-gradient-9);
      }

      .cls-49 {
        fill: url(#linear-gradient-8);
      }
    </style>
    <linearGradient id="linear-gradient" x1="21.77" y1="-1.54" x2="100.55" y2="77.24" gradientUnits="userSpaceOnUse">
      <stop offset="0" stop-color="#7f5a24"/>
      <stop offset=".26" stop-color="#7f5a24"/>
      <stop offset=".49" stop-color="#d4b22a"/>
      <stop offset=".74" stop-color="#c8a040"/>
      <stop offset="1" stop-color="#7f5a24"/>
    </linearGradient>
    <linearGradient id="linear-gradient-2" x1="21.09" y1="-6.16" x2="101.17" y2="73.91" gradientUnits="userSpaceOnUse">
      <stop offset="0" stop-color="#a76c29"/>
      <stop offset=".01" stop-color="#b87f2e"/>
      <stop offset=".03" stop-color="#d19c36"/>
      <stop offset=".06" stop-color="#e5b23c"/>
      <stop offset=".08" stop-color="#f4c240"/>
      <stop offset=".11" stop-color="#fccc43"/>
      <stop offset=".15" stop-color="#ffcf44"/>
      <stop offset=".19" stop-color="#fdd960"/>
      <stop offset=".24" stop-color="#fbe887"/>
      <stop offset=".28" stop-color="#faf1a0"/>
      <stop offset=".31" stop-color="#faf5a9"/>
      <stop offset=".34" stop-color="#faee96"/>
      <stop offset=".41" stop-color="#fddc66"/>
      <stop offset=".46" stop-color="#ffcf44"/>
      <stop offset=".7" stop-color="#ffcf44"/>
      <stop offset=".8" stop-color="#f0b83c"/>
      <stop offset="1" stop-color="#cb812b"/>
    </linearGradient>
    <linearGradient id="linear-gradient-3" x1="1.67" y1="31.64" x2="120.77" y2="31.64" gradientUnits="userSpaceOnUse">
      <stop offset="0" stop-color="#7f5a24"/>
      <stop offset=".26" stop-color="#c8a040"/>
      <stop offset=".74" stop-color="#7f5a24"/>
      <stop offset="1" stop-color="#7f5a24"/>
    </linearGradient>
    <linearGradient id="linear-gradient-4" x1="22.46" y1="-4.6" x2="99.81" y2="72.75" gradientUnits="userSpaceOnUse">
      <stop offset="0" stop-color="#5a1e2d"/>
      <stop offset=".31" stop-color="#ec2227"/>
      <stop offset=".55" stop-color="#f26b6f"/>
      <stop offset=".69" stop-color="#ec2227"/>
      <stop offset=".87" stop-color="#651f2e"/>
    </linearGradient>
    <filter id="luminosity-noclip" x="37.8" y="-8715.21" width="61.54" height="32766" color-interpolation-filters="sRGB" filterUnits="userSpaceOnUse">
      <feFlood flood-color="#fff" result="bg"/>
      <feBlend in="SourceGraphic" in2="bg"/>
    </filter>
    <mask id="mask-1" x="37.8" y="-8715.21" width="61.54" height="32766" maskUnits="userSpaceOnUse"/>
    <radialGradient id="radial-gradient" cx="68.57" cy="34.5" fx="68.57" fy="34.5" r="30.77" gradientTransform="translate(86.18 -40.22) rotate(76.55)" gradientUnits="userSpaceOnUse">
      <stop offset="0" stop-color="#fff"/>
      <stop offset=".5" stop-color="#bfbfbf"/>
      <stop offset=".57" stop-color="#bababa"/>
      <stop offset=".64" stop-color="#aeaeae"/>
      <stop offset=".72" stop-color="#999"/>
      <stop offset=".79" stop-color="#7c7c7c"/>
      <stop offset=".87" stop-color="#575757"/>
      <stop offset=".94" stop-color="#292929"/>
      <stop offset="1" stop-color="#000"/>
    </radialGradient>
    <mask id="mask" x="37.8" y="3.73" width="61.54" height="61.54" maskUnits="userSpaceOnUse">
      <g class="cls-39">
        <circle class="cls-6" cx="68.57" cy="34.5" r="30.77" transform="translate(19.07 93.17) rotate(-76.55)"/>
      </g>
    </mask>
    <filter id="luminosity-noclip-2" x="37.8" y="3.73" width="61.54" height="61.54" color-interpolation-filters="sRGB" filterUnits="userSpaceOnUse">
      <feFlood flood-color="#fff" result="bg"/>
      <feBlend in="SourceGraphic" in2="bg"/>
    </filter>
    <filter id="luminosity-noclip-3" x="37.8" y="-8715.21" width="61.54" height="32766" color-interpolation-filters="sRGB" filterUnits="userSpaceOnUse">
      <feFlood flood-color="#fff" result="bg"/>
      <feBlend in="SourceGraphic" in2="bg"/>
    </filter>
    <mask id="mask-3" x="37.8" y="-8715.21" width="61.54" height="32766" maskUnits="userSpaceOnUse"/>
    <radialGradient id="radial-gradient-2" cx="68.57" cy="34.5" fx="68.57" fy="34.5" r="30.77" gradientTransform="translate(86.18 -40.22) rotate(76.55)" gradientUnits="userSpaceOnUse">
      <stop offset="0" stop-color="#fff"/>
      <stop offset=".5" stop-color="#fff"/>
      <stop offset=".69" stop-color="#fdfdfd"/>
      <stop offset=".75" stop-color="#f6f6f6"/>
      <stop offset=".8" stop-color="#eaeaea"/>
      <stop offset=".84" stop-color="#d9d9d9"/>
      <stop offset=".87" stop-color="#c3c3c3"/>
      <stop offset=".9" stop-color="#a8a8a8"/>
      <stop offset=".93" stop-color="#878787"/>
      <stop offset=".95" stop-color="#626262"/>
      <stop offset=".98" stop-color="#373737"/>
      <stop offset="1" stop-color="#090909"/>
      <stop offset="1" stop-color="#000"/>
    </radialGradient>
    <mask id="mask-2" x="37.8" y="3.73" width="61.54" height="61.54" maskUnits="userSpaceOnUse">
      <g class="cls-44">
        <g class="cls-19">
          <circle class="cls-3" cx="68.57" cy="34.5" r="30.77" transform="translate(19.07 93.17) rotate(-76.55)"/>
        </g>
      </g>
    </mask>
    <radialGradient id="radial-gradient-3" cx="68.57" cy="34.5" fx="68.57" fy="34.5" r="30.77" gradientTransform="translate(86.18 -40.22) rotate(76.55)" gradientUnits="userSpaceOnUse">
      <stop offset="0" stop-color="#6a501f"/>
      <stop offset=".5" stop-color="#6a501f"/>
      <stop offset=".93" stop-color="#6a501f"/>
      <stop offset="1" stop-color="#6a501f"/>
    </radialGradient>
    <filter id="luminosity-noclip-4" x="24.39" y="-8715.21" width="61.29" height="32766" color-interpolation-filters="sRGB" filterUnits="userSpaceOnUse">
      <feFlood flood-color="#fff" result="bg"/>
      <feBlend in="SourceGraphic" in2="bg"/>
    </filter>
    <mask id="mask-5" x="24.39" y="-8715.21" width="61.29" height="32766" maskUnits="userSpaceOnUse"/>
    <radialGradient id="radial-gradient-4" cx="55.03" cy="55.34" fx="55.03" fy="55.34" r="30.64" gradientTransform="translate(0 -25.48) scale(1 1.12)" gradientUnits="userSpaceOnUse">
      <stop offset="0" stop-color="#f2f2f2"/>
      <stop offset=".5" stop-color="#bfbfbf"/>
      <stop offset=".57" stop-color="#bababa"/>
      <stop offset=".64" stop-color="#aeaeae"/>
      <stop offset=".72" stop-color="#999"/>
      <stop offset=".79" stop-color="#7c7c7c"/>
      <stop offset=".87" stop-color="#575757"/>
      <stop offset=".94" stop-color="#292929"/>
      <stop offset="1" stop-color="#000"/>
    </radialGradient>
    <mask id="mask-4" x="24.39" y="2.23" width="61.29" height="68.76" maskUnits="userSpaceOnUse">
      <g class="cls-25">
        <ellipse class="cls-4" cx="55.03" cy="36.61" rx="30.64" ry="34.38"/>
      </g>
    </mask>
    <filter id="luminosity-noclip-5" x="24.39" y="2.23" width="61.29" height="68.76" color-interpolation-filters="sRGB" filterUnits="userSpaceOnUse">
      <feFlood flood-color="#fff" result="bg"/>
      <feBlend in="SourceGraphic" in2="bg"/>
    </filter>
    <filter id="luminosity-noclip-6" x="24.39" y="-8715.21" width="61.29" height="32766" color-interpolation-filters="sRGB" filterUnits="userSpaceOnUse">
      <feFlood flood-color="#fff" result="bg"/>
      <feBlend in="SourceGraphic" in2="bg"/>
    </filter>
    <mask id="mask-7" x="24.39" y="-8715.21" width="61.29" height="32766" maskUnits="userSpaceOnUse"/>
    <radialGradient id="radial-gradient-5" cx="55.03" cy="55.34" fx="55.03" fy="55.34" r="30.64" gradientTransform="translate(0 -25.48) scale(1 1.12)" gradientUnits="userSpaceOnUse">
      <stop offset="0" stop-color="#fff"/>
      <stop offset=".7" stop-color="#fff"/>
      <stop offset=".81" stop-color="#fdfdfd"/>
      <stop offset=".85" stop-color="#f6f6f6"/>
      <stop offset=".88" stop-color="#eaeaea"/>
      <stop offset=".9" stop-color="#d9d9d9"/>
      <stop offset=".92" stop-color="#c3c3c3"/>
      <stop offset=".94" stop-color="#a8a8a8"/>
      <stop offset=".96" stop-color="#878787"/>
      <stop offset=".97" stop-color="#626262"/>
      <stop offset=".99" stop-color="#373737"/>
      <stop offset="1" stop-color="#090909"/>
      <stop offset="1" stop-color="#000"/>
    </radialGradient>
    <mask id="mask-6" x="24.39" y="2.23" width="61.29" height="68.76" maskUnits="userSpaceOnUse">
      <g class="cls-15">
        <g class="cls-43">
          <ellipse class="cls-5" cx="55.03" cy="36.61" rx="30.64" ry="34.38"/>
        </g>
      </g>
    </mask>
    <radialGradient id="radial-gradient-6" cx="55.03" cy="55.34" fx="55.03" fy="55.34" r="30.64" gradientTransform="translate(0 -25.48) scale(1 1.12)" gradientUnits="userSpaceOnUse">
      <stop offset="0" stop-color="#6a501f"/>
      <stop offset=".7" stop-color="#6a501f"/>
      <stop offset=".96" stop-color="#6a501f"/>
      <stop offset="1" stop-color="#6a501f"/>
    </radialGradient>
    <linearGradient id="linear-gradient-5" x1="27.68" y1="55.47" x2="92.54" y2="55.47" gradientUnits="userSpaceOnUse">
      <stop offset="0" stop-color="#d2a12a"/>
      <stop offset=".07" stop-color="#d7a72d"/>
      <stop offset=".16" stop-color="#e8ba35"/>
      <stop offset=".26" stop-color="#ffd541"/>
      <stop offset=".37" stop-color="#fdd340"/>
      <stop offset=".4" stop-color="#f6cc3f"/>
      <stop offset=".43" stop-color="#eac13c"/>
      <stop offset=".46" stop-color="#d9b138"/>
      <stop offset=".47" stop-color="#c39b33"/>
      <stop offset=".49" stop-color="#a8812d"/>
      <stop offset=".51" stop-color="#886326"/>
      <stop offset=".51" stop-color="#7f5a24"/>
      <stop offset="1" stop-color="#7f5a24"/>
    </linearGradient>
    <linearGradient id="linear-gradient-6" x1="29.95" y1="16.73" x2="90.28" y2="77.06" gradientUnits="userSpaceOnUse">
      <stop offset="0" stop-color="#c8822a"/>
      <stop offset="0" stop-color="#ca8831"/>
      <stop offset=".04" stop-color="#dbaf5c"/>
      <stop offset=".07" stop-color="#e8cd7d"/>
      <stop offset=".1" stop-color="#f2e395"/>
      <stop offset=".12" stop-color="#f8f0a4"/>
      <stop offset=".15" stop-color="#faf5a9"/>
      <stop offset=".22" stop-color="#faee96"/>
      <stop offset=".36" stop-color="#fddc66"/>
      <stop offset=".46" stop-color="#ffcf44"/>
      <stop offset=".68" stop-color="#ffcf44"/>
      <stop offset=".71" stop-color="#f7c540"/>
      <stop offset=".83" stop-color="#dda034"/>
      <stop offset=".94" stop-color="#cd8a2c"/>
      <stop offset="1" stop-color="#c8822a"/>
    </linearGradient>
    <linearGradient id="linear-gradient-7" x1="26.31" y1="43.12" x2="84.43" y2="58.69" xlink:href="#linear-gradient-3"/>
    <linearGradient id="linear-gradient-8" x1="30.07" y1="53.4" x2="90.16" y2="53.4" gradientUnits="userSpaceOnUse">
      <stop offset="0" stop-color="#ec2227"/>
      <stop offset=".2" stop-color="#f26b6f"/>
      <stop offset=".26" stop-color="#ec6268"/>
      <stop offset=".35" stop-color="#dd4c54"/>
      <stop offset=".46" stop-color="#c42935"/>
      <stop offset=".49" stop-color="#be202e"/>
      <stop offset=".5" stop-color="#ba1f2d"/>
      <stop offset=".73" stop-color="#861e2d"/>
      <stop offset=".9" stop-color="#661e2d"/>
      <stop offset="1" stop-color="#5a1e2d"/>
    </linearGradient>
    <filter id="luminosity-noclip-7" x="41.81" y="-8715.21" width="38.81" height="32766" color-interpolation-filters="sRGB" filterUnits="userSpaceOnUse">
      <feFlood flood-color="#fff" result="bg"/>
      <feBlend in="SourceGraphic" in2="bg"/>
    </filter>
    <mask id="mask-9" x="41.81" y="-8715.21" width="38.81" height="32766" maskUnits="userSpaceOnUse"/>
    <radialGradient id="radial-gradient-7" cx="125.49" cy="56.83" fx="125.49" fy="56.83" r="18.85" gradientTransform="translate(-80.52 22.7) rotate(-21.59) scale(1.02 1.09)" gradientUnits="userSpaceOnUse">
      <stop offset="0" stop-color="#b3b3b3"/>
      <stop offset=".5" stop-color="gray"/>
      <stop offset=".57" stop-color="#777"/>
      <stop offset=".69" stop-color="#5e5e5e"/>
      <stop offset=".83" stop-color="#373737"/>
      <stop offset="1" stop-color="#000"/>
      <stop offset="1" stop-color="#000"/>
    </radialGradient>
    <mask id="mask-8" x="41.81" y="12.75" width="38.81" height="40.67" maskUnits="userSpaceOnUse">
      <g class="cls-21">
        <path class="cls-10" d="m79.1,26.01c4.17,10.53-.46,22.23-10.33,26.14-9.87,3.91-21.25-1.46-25.42-11.99-4.17-10.53.46-22.23,10.33-26.13,9.87-3.91,21.25,1.46,25.42,11.99Z"/>
      </g>
    </mask>
    <filter id="luminosity-noclip-8" x="41.81" y="12.75" width="38.81" height="40.67" color-interpolation-filters="sRGB" filterUnits="userSpaceOnUse">
      <feFlood flood-color="#fff" result="bg"/>
      <feBlend in="SourceGraphic" in2="bg"/>
    </filter>
    <filter id="luminosity-noclip-9" x="41.81" y="-8715.21" width="38.81" height="32766" color-interpolation-filters="sRGB" filterUnits="userSpaceOnUse">
      <feFlood flood-color="#fff" result="bg"/>
      <feBlend in="SourceGraphic" in2="bg"/>
    </filter>
    <mask id="mask-11" x="41.81" y="-8715.21" width="38.81" height="32766" maskUnits="userSpaceOnUse"/>
    <radialGradient id="radial-gradient-8" cx="125.49" cy="56.83" fx="125.49" fy="56.83" r="18.85" gradientTransform="translate(-80.52 22.7) rotate(-21.59) scale(1.02 1.09)" xlink:href="#radial-gradient-2"/>
    <mask id="mask-10" x="41.81" y="12.75" width="38.81" height="40.67" maskUnits="userSpaceOnUse">
      <g class="cls-26">
        <g class="cls-47">
          <path class="cls-2" d="m79.1,26.01c4.17,10.53-.46,22.23-10.33,26.14-9.87,3.91-21.25-1.46-25.42-11.99-4.17-10.53.46-22.23,10.33-26.13,9.87-3.91,21.25,1.46,25.42,11.99Z"/>
        </g>
      </g>
    </mask>
    <radialGradient id="radial-gradient-9" cx="125.49" cy="56.83" fx="125.49" fy="56.83" r="18.85" gradientTransform="translate(-80.52 22.7) rotate(-21.59) scale(1.02 1.09)" xlink:href="#radial-gradient-3"/>
    <linearGradient id="linear-gradient-9" x1="46.47" y1="16.5" x2="73.3" y2="43.33" gradientUnits="userSpaceOnUse">
      <stop offset="0" stop-color="#faf5a9"/>
      <stop offset=".13" stop-color="#faf3a5"/>
      <stop offset=".23" stop-color="#faef9b"/>
      <stop offset=".33" stop-color="#fbe989"/>
      <stop offset=".43" stop-color="#fcdf70"/>
      <stop offset=".52" stop-color="#fed451"/>
      <stop offset=".55" stop-color="#ffcf44"/>
      <stop offset=".67" stop-color="#fccb42"/>
      <stop offset=".77" stop-color="#f6c13f"/>
      <stop offset=".85" stop-color="#eab03a"/>
      <stop offset=".94" stop-color="#db9932"/>
      <stop offset="1" stop-color="#cb812b"/>
    </linearGradient>
    <filter id="luminosity-noclip-10" x="41.31" y="-8715.21" width="34.82" height="32766" color-interpolation-filters="sRGB" filterUnits="userSpaceOnUse">
      <feFlood flood-color="#fff" result="bg"/>
      <feBlend in="SourceGraphic" in2="bg"/>
    </filter>
    <mask id="mask-13" x="41.31" y="-8715.21" width="34.82" height="32766" maskUnits="userSpaceOnUse"/>
    <radialGradient id="radial-gradient-10" cx="58.72" cy="28.82" fx="58.72" fy="28.82" r="17.41" gradientUnits="userSpaceOnUse">
      <stop offset="0" stop-color="#f2f2f2"/>
      <stop offset=".5" stop-color="#a6a6a6"/>
      <stop offset=".56" stop-color="#9d9d9d"/>
      <stop offset=".65" stop-color="#848484"/>
      <stop offset=".77" stop-color="#5c5c5c"/>
      <stop offset=".91" stop-color="#262626"/>
      <stop offset="1" stop-color="#000"/>
    </radialGradient>
    <mask id="mask-12" x="41.31" y="11.41" width="34.82" height="34.82" maskUnits="userSpaceOnUse">
      <g class="cls-18">
        <circle class="cls-9" cx="58.72" cy="28.82" r="17.41"/>
      </g>
    </mask>
    <filter id="luminosity-noclip-11" x="41.31" y="11.41" width="34.82" height="34.82" color-interpolation-filters="sRGB" filterUnits="userSpaceOnUse">
      <feFlood flood-color="#fff" result="bg"/>
      <feBlend in="SourceGraphic" in2="bg"/>
    </filter>
    <filter id="luminosity-noclip-12" x="41.31" y="-8715.21" width="34.82" height="32766" color-interpolation-filters="sRGB" filterUnits="userSpaceOnUse">
      <feFlood flood-color="#fff" result="bg"/>
      <feBlend in="SourceGraphic" in2="bg"/>
    </filter>
    <mask id="mask-15" x="41.31" y="-8715.21" width="34.82" height="32766" maskUnits="userSpaceOnUse"/>
    <radialGradient id="radial-gradient-11" cx="58.72" cy="28.82" fx="58.72" fy="28.82" r="17.41" gradientUnits="userSpaceOnUse">
      <stop offset="0" stop-color="#fff"/>
      <stop offset=".5" stop-color="#fff"/>
      <stop offset=".54" stop-color="#f6f6f6"/>
      <stop offset=".61" stop-color="#ddd"/>
      <stop offset=".7" stop-color="#b5b5b5"/>
      <stop offset=".8" stop-color="#7e7e7e"/>
      <stop offset=".91" stop-color="#393939"/>
      <stop offset="1" stop-color="#000"/>
    </radialGradient>
    <mask id="mask-14" x="41.31" y="11.41" width="34.82" height="34.82" maskUnits="userSpaceOnUse">
      <g class="cls-11">
        <g class="cls-32">
          <circle class="cls-1" cx="58.72" cy="28.82" r="17.41"/>
        </g>
      </g>
    </mask>
    <radialGradient id="radial-gradient-12" cx="58.72" cy="28.82" fx="58.72" fy="28.82" r="17.41" gradientUnits="userSpaceOnUse">
      <stop offset="0" stop-color="#ffe26a"/>
      <stop offset=".5" stop-color="#fec96c"/>
      <stop offset=".73" stop-color="#fed16b"/>
      <stop offset="1" stop-color="#ffe26a"/>
    </radialGradient>
    <filter id="luminosity-noclip-13" x="46.68" y="-8715.21" width="17.41" height="32766" color-interpolation-filters="sRGB" filterUnits="userSpaceOnUse">
      <feFlood flood-color="#fff" result="bg"/>
      <feBlend in="SourceGraphic" in2="bg"/>
    </filter>
    <mask id="mask-17" x="46.68" y="-8715.21" width="17.41" height="32766" maskUnits="userSpaceOnUse"/>
    <radialGradient id="radial-gradient-13" cx="55.38" cy="21.92" fx="55.38" fy="21.92" r="8.71" xlink:href="#radial-gradient-10"/>
    <mask id="mask-16" x="46.68" y="13.22" width="17.41" height="17.41" maskUnits="userSpaceOnUse">
      <g class="cls-14">
        <path class="cls-8" d="m64.09,21.92c0,4.81-3.9,8.71-8.71,8.71s-8.71-3.9-8.71-8.71,3.9-8.71,8.71-8.71,8.71,3.9,8.71,8.71Z"/>
      </g>
    </mask>
    <filter id="luminosity-noclip-14" x="46.68" y="13.22" width="17.41" height="17.41" color-interpolation-filters="sRGB" filterUnits="userSpaceOnUse">
      <feFlood flood-color="#fff" result="bg"/>
      <feBlend in="SourceGraphic" in2="bg"/>
    </filter>
    <filter id="luminosity-noclip-15" x="46.68" y="-8715.21" width="17.41" height="32766" color-interpolation-filters="sRGB" filterUnits="userSpaceOnUse">
      <feFlood flood-color="#fff" result="bg"/>
      <feBlend in="SourceGraphic" in2="bg"/>
    </filter>
    <mask id="mask-19" x="46.68" y="-8715.21" width="17.41" height="32766" maskUnits="userSpaceOnUse"/>
    <radialGradient id="radial-gradient-14" cx="55.38" cy="21.92" fx="55.38" fy="21.92" r="8.71" xlink:href="#radial-gradient-11"/>
    <mask id="mask-18" x="46.68" y="13.22" width="17.41" height="17.41" maskUnits="userSpaceOnUse">
      <g class="cls-24">
        <g class="cls-31">
          <path class="cls-7" d="m64.09,21.92c0,4.81-3.9,8.71-8.71,8.71s-8.71-3.9-8.71-8.71,3.9-8.71,8.71-8.71,8.71,3.9,8.71,8.71Z"/>
        </g>
      </g>
    </mask>
    <radialGradient id="radial-gradient-15" cx="55.38" cy="21.92" fx="55.38" fy="21.92" r="8.71" gradientUnits="userSpaceOnUse">
      <stop offset="0" stop-color="#fff"/>
      <stop offset=".5" stop-color="#fff"/>
      <stop offset="1" stop-color="#fff"/>
    </radialGradient>
  </defs>
  <g id="Layer_1-2" data-name="Layer 1">
    <g id="ROATA_NOROCOASA" data-name="ROATA NOROCOASA">
      <g id="Fortune_Wheel" data-name="Fortune Wheel">
        <g id="Wheel">
          <g>
            <path class="cls-42" d="m122.44,52.31c-.01,1.21-.25,2.93-1.43,4.28,0,0-1.26,2.3-3.69,1.93-16.46-2.51-35.69-4.31-57.14-4.25-20.6.06-39.11,1.82-55.07,4.25-.63.1-2.41-.46-3.69-1.92C.06,55.03-.05,52.94.03,51.59c-.01-10.45-.02-20.91-.03-31.36,15.41-4,36.48-7.83,61.62-7.71,24.78.12,45.56,4.04,60.82,8.11,0,10.56,0,21.13,0,31.69Z"/>
            <path class="cls-12" d="m122.44,51.13c0,2.22-1.96,3.92-4.15,3.59-16.74-2.51-36.3-4.31-58.12-4.25-20.95.06-39.78,1.82-56.01,4.25-2.19.33-4.15-1.37-4.15-3.59V16.44c0-1.8,1.31-3.33,3.09-3.59,16.88-2.46,36.57-4.21,58.53-4.12,21.65.09,41.06,1.95,57.74,4.48,1.77.27,3.07,1.8,3.07,3.59v34.33Z"/>
            <path class="cls-41" d="m117.78,14.11c-16.22-2.4-35.11-4.15-56.17-4.24-.53,0-1.05,0-1.58,0-20.73,0-39.35,1.63-55.36,3.9-1.73.24-3.01,1.7-3.01,3.4v32.81c0,1.92,1.6,3.43,3.51,3.43.17,0,.35-.01.53-.04,15.78-2.3,34.1-3.96,54.48-4.02.34,0,.68,0,1.03,0,20.81,0,39.49,1.69,55.51,4.02.18.03.35.04.53.04,1.91,0,3.51-1.51,3.51-3.43V17.51c0-1.69-1.27-3.14-2.99-3.39Zm.7,35.86c0,.67-.55,1.21-1.22,1.21-.06,0-.13,0-.19-.01-18.43-2.68-37.22-4.04-55.87-4.04h-1.01c-18.29.05-36.73,1.41-54.82,4.04-.06,0-.13.01-.19.01-.67,0-1.22-.54-1.22-1.21V17.17c0-.6.45-1.11,1.05-1.19,18.16-2.57,36.68-3.87,55.03-3.87.52,0,1.05,0,1.57,0,18.63.07,37.41,1.49,55.83,4.21.59.09,1.04.6,1.04,1.19v32.46Z"/>
            <path class="cls-46" d="m117.78,14.53c-16.22-2.4-35.11-4.15-56.17-4.24-.53,0-1.05,0-1.58,0-20.73,0-39.35,1.63-55.36,3.9-1.73.24-3.01,1.7-3.01,3.4v32.81c0,1.92,1.6,3.43,3.51,3.43.17,0,.35-.01.53-.04,15.78-2.3,34.1-3.96,54.48-4.02.34,0,.68,0,1.03,0,20.81,0,39.49,1.69,55.51,4.02.18.03.35.04.53.04,1.91,0,3.51-1.51,3.51-3.43V17.93c0-1.69-1.27-3.14-2.99-3.39Zm.7,35.86c0,.67-.55,1.21-1.22,1.21-.06,0-.13,0-.19-.01-18.43-2.68-37.22-4.04-55.87-4.04h-1.01c-18.29.05-36.73,1.41-54.82,4.04-.06,0-.13.01-.19.01-.67,0-1.22-.54-1.22-1.21V17.58c0-.6.45-1.11,1.05-1.19,18.16-2.57,36.68-3.87,55.03-3.87.52,0,1.05,0,1.57,0,18.63.07,37.41,1.49,55.83,4.21.59.09,1.04.6,1.04,1.19v32.46Z"/>
            <g class="cls-40">
              <g class="cls-16">
                <circle class="cls-33" cx="68.57" cy="34.5" r="30.77" transform="translate(19.07 93.17) rotate(-76.55)"/>
              </g>
            </g>
            <g class="cls-28">
              <g class="cls-34">
                <ellipse class="cls-20" cx="55.03" cy="36.61" rx="30.64" ry="34.38"/>
              </g>
            </g>
            <path class="cls-29" d="m92.54,34.43c0-17.79-14.52-32.2-32.43-32.2S27.68,16.64,27.68,34.43s22.12,61.5,32.43,74.28c10.18-12.56,32.43-56.5,32.43-74.28Z"/>
            <path class="cls-17" d="m92.54,32.43C92.54,14.52,78.02,0,60.11,0S27.68,14.52,27.68,32.43s22.12,61.93,32.43,74.8c10.18-12.65,32.43-56.89,32.43-74.8Z"/>
            <path class="cls-35" d="m60.11,4.7c15.65,0,28.38,12.73,28.38,28.38s-18.63,53.18-28.37,66.55c-9.75-13.42-28.38-51.14-28.38-66.55S44.46,4.7,60.11,4.7m0-1.67c-16.59,0-30.05,13.45-30.05,30.05s20.49,57.38,30.05,69.31c9.43-11.72,30.05-52.71,30.05-69.31S76.71,3.03,60.11,3.03h0Z"/>
            <path class="cls-49" d="m60.11,5.4c15.65,0,28.38,12.73,28.38,28.38s-18.63,53.18-28.37,66.55c-9.75-13.42-28.38-51.14-28.38-66.55S44.46,5.4,60.11,5.4m0-1.67c-16.59,0-30.05,13.45-30.05,30.05s20.49,57.38,30.05,69.31c9.43-11.72,30.05-52.71,30.05-69.31S76.71,3.73,60.11,3.73h0Z"/>
            <g class="cls-27">
              <g class="cls-13">
                <path class="cls-48" d="m79.1,26.01c4.17,10.53-.46,22.23-10.33,26.14-9.87,3.91-21.25-1.46-25.42-11.99-4.17-10.53.46-22.23,10.33-26.13,9.87-3.91,21.25,1.46,25.42,11.99Z"/>
              </g>
            </g>
            <circle class="cls-38" cx="59.88" cy="29.91" r="18.97"/>
            <g class="cls-23">
              <g class="cls-45">
                <circle class="cls-22" cx="58.72" cy="28.82" r="17.41"/>
              </g>
            </g>
            <g class="cls-36">
              <g class="cls-37">
                <path class="cls-30" d="m64.09,21.92c0,4.81-3.9,8.71-8.71,8.71s-8.71-3.9-8.71-8.71,3.9-8.71,8.71-8.71,8.71,3.9,8.71,8.71Z"/>
              </g>
            </g>
          </g>
        </g>
      </g>
    </g>
  </g>
</svg>